# xmcd
#
# Track frame offsets:
#	150
#	17798
#	27282
#	40674
#	53766
#	72449
#	82407
#	94132
#	102650
#	112991
#	124164
#	140141
#	153646
#	167566
#	181546
#	192824
#	204409
#	214204
#	227204
#	244325
#	259257
#	269504
#	281012
#	287989
#	310944
#	320897
#	328780
#	342695
#
# Disc length: 4785 seconds
#
# Revision: 0
# Processed by: cddbd v1.5.2PL0 Copyright (c) Steve Scherf et al.
# Submitted via: EasyCDDAExtractor 8.2.3.1
#
DISCID=be12af1c
DTITLE=Various Artist - Rock'n'Roll For Lily CD-9
DYEAR=2006
DGENRE=Blues
TTITLE0=WILLIE and the POOR BOYS - You Never Can Tell
TTITLE1=ES FEIV - Brand New Cadillac
TTITLE2=WILLIE and the POOR BOYS - Let's Talk It Over
TTITLE3=EL RIO TRIO - I'm Burning
TTITLE4=JOHNNY POWER - You Win Again
TTITLE5=BOB and The BEARCATS - Honey Bunny Baby
TTITLE6=The FIREBIRDS - Baby Blues
TTITLE7=RAY CHARLES and STRAY CATS - Hit the Road Jack
TTITLE8=The RUNNAWAY BOYS - Rock Around with Ollie Vee
TTITLE9=ROCKIN' LOUIE - Troubles Troubles
TTITLE10=MUNGO JERRY - In the Summertime
TTITLE11=JAN GILLAN and The JAVELINS - Too Much Monkey Business
TTITLE12=SHAKIN' STEVENS - This Ole House
TTITLE13=ELVIS PRESLEY - T-R-O-U-B-L-E
TTITLE14=RALPH REBEL - Rockabilly Vampire
TTITLE15=The FIREBIRDS - Comin' On Strong
TTITLE16=JOHNNY HALLYDAY - Blue Suede Shoes
TTITLE17=SHAKIN' STEVENS - A Rockin' Good Way
TTITLE18=LEE ROCKER - Rumblin' Bass
TTITLE19=The JETS - Whole Town's Rockin'
TTITLE20=GENE VINCENT - Gene's on the Jukebox
TTITLE21=SLEEPY LaBEEF - Bottle Up and Go
TTITLE22=CRAZY CAVAN and RHYTHM ROCKERS - Teddy Boy Rock'n'Roll
TTITLE23=DANNY GATTON - Sun Medley
TTITLE24=ROBERT PLANT - My Bucket's Got a Hole In It
TTITLE25=CHUCK BERRY - Let it Rock
TTITLE26=LEE ROCKER - Love Me Good
TTITLE27=RALPH REBEL - Red Hot Mama
EXTD=
EXTT0=
EXTT1=
EXTT2=
EXTT3=
EXTT4=
EXTT5=
EXTT6=
EXTT7=
EXTT8=
EXTT9=
EXTT10=
EXTT11=
EXTT12=
EXTT13=
EXTT14=
EXTT15=
EXTT16=
EXTT17=
EXTT18=
EXTT19=
EXTT20=
EXTT21=
EXTT22=
EXTT23=
EXTT24=
EXTT25=
EXTT26=
EXTT27=
PLAYORDER=
